HIERARCHY
ROOT hip
{
	OFFSET 0.000000 0.000000 0.000000 
	CHANNELS 6 Xposition Yposition Zposition Xrotation Zrotation Yrotation
	JOINT abdomen
	{
		OFFSET 0.000000 3.402643 0.000000 
		CHANNELS 3 Xrotation Zrotation Yrotation
		JOINT chest
		{
			OFFSET 0.000000 8.438565 -0.680529 
			CHANNELS 3 Xrotation Zrotation Yrotation
			JOINT neck
			{
				OFFSET 0.000000 10.207942 -0.272212 
				CHANNELS 3 Xrotation Zrotation Yrotation
				JOINT head
				{
					OFFSET 0.000000 3.130431 0.000000 
					CHANNELS 3 Xrotation Zrotation Yrotation
					End Site
					{
						OFFSET 0.000000 3.130435 0.000000 
					}
				}
			}
			JOINT lCollar
			{
				OFFSET 3.470700 6.669187 -0.816635 
				CHANNELS 3 Yrotation Zrotation Xrotation
				JOINT lShldr
				{
					OFFSET 3.198488 0.000000 0.000000 
					CHANNELS 3 Zrotation Yrotation Xrotation
					JOINT lForeArm
					{
						OFFSET 10.139888 0.000000 0.000000 
						CHANNELS 3 Yrotation Zrotation Xrotation
						JOINT lHand
						{
							OFFSET 8.370511 0.000000 0.000000 
							CHANNELS 3 Zrotation Yrotation Xrotation
							End Site
							{
								OFFSET 4.083176 0.000000 0.000000 
							}
						}
					}
				}
			}
			JOINT rCollar
			{
				OFFSET -3.470700 6.669187 -0.816635 
				CHANNELS 3 Yrotation Zrotation Xrotation
				JOINT rShldr
				{
					OFFSET -3.198488 0.000000 0.000000 
					CHANNELS 3 Zrotation Yrotation Xrotation
					JOINT rForeArm
					{
						OFFSET -10.139888 0.000000 0.000000 
						CHANNELS 3 Yrotation Zrotation Xrotation
						JOINT rHand
						{
							OFFSET -8.370511 0.000000 0.000000 
							CHANNELS 3 Zrotation Yrotation Xrotation
							End Site
							{
								OFFSET -4.083176 0.000000 0.000000 
							}
						}
					}
				}
			}
		}
	}
	JOINT lThigh
	{
		OFFSET 5.308129 -1.633274 1.361059 
		CHANNELS 3 Xrotation Zrotation Yrotation
		JOINT lShin
		{
			OFFSET -2.041588 -20.007561 0.000000 
			CHANNELS 3 Xrotation Zrotation Yrotation
			JOINT lFoot
			{
				OFFSET 0.000000 -19.190928 -1.224953 
				CHANNELS 3 Xrotation Yrotation Zrotation
				End Site
				{
					OFFSET 0.000000 -2.449906 4.627600 
				}
			}
		}
	}
	JOINT rThigh
	{
		OFFSET -5.308129 -1.633274 1.361059 
		CHANNELS 3 Xrotation Zrotation Yrotation
		JOINT rShin
		{
			OFFSET 2.041588 -20.007561 0.000000 
			CHANNELS 3 Xrotation Zrotation Yrotation
			JOINT rFoot
			{
				OFFSET 0.000000 -19.190928 -1.224953 
				CHANNELS 3 Xrotation Yrotation Zrotation
				End Site
				{
					OFFSET 0.000000 -2.449906 4.627600 
				}
			}
		}
	}
}
MOTION
Frames: 15
Frame Time: 0.011111
28.453922 52.095306 -101.872070 13.007103 6.950390 -52.198524 31.132593 0.111833 -4.333574 -24.064646 9.938521 -1.045724 -11.997163 -5.681996 5.695484 32.214737 8.310660 13.035808 6.655530 -7.385053 2.814211 -72.079231 -43.472111 6.767266 -50.946732 7.909669 8.530223 8.524705 12.647240 -50.657604 -7.245022 1.299557 2.988899 64.539757 29.522772 16.369061 65.028862 -9.464190 14.713826 -8.534408 -12.637552 63.626812 -30.544271 6.151624 -2.296419 48.614845 -3.909773 -7.065557 -26.528860 -2.652881 -3.385582 -11.476465 -11.321938 5.814132 48.459148 3.908737 7.022904 2.115831 1.090466 3.004108 
28.298958 52.088146 -101.365494 12.891522 7.044657 -52.394997 31.145287 -0.294026 -3.888168 -23.806063 9.443369 -0.836332 -11.639282 -5.880801 5.398246 31.241602 9.332848 12.694336 6.655530 -7.385053 2.814211 -71.371605 -44.138103 7.563921 -50.622684 7.841518 8.408906 8.524705 12.647240 -50.491589 -7.245022 1.299557 2.988899 65.346939 29.498592 15.315081 65.166695 -9.461318 14.778336 -8.534408 -12.637552 63.519394 -29.809664 5.672602 -2.272482 48.448147 -3.912238 -7.052530 -26.901409 -3.262656 -3.665827 -12.288030 -11.703845 6.196943 49.696564 3.791372 7.172881 3.747227 0.981801 2.904630 
28.149908 52.072590 -100.870117 12.700268 7.303584 -52.520676 31.183546 -0.811388 -4.036760 -23.935152 9.619189 -0.828011 -12.296786 -4.957048 5.393370 32.048443 8.666204 12.611713 6.655530 -7.385053 2.814211 -71.148361 -44.106762 7.921736 -50.685139 7.853234 8.430555 8.524705 12.647240 -50.393932 -7.245022 1.299557 2.988899 65.611084 29.281513 14.960139 65.306015 -9.461331 14.840376 -8.534408 -12.637552 63.363140 -29.149502 5.145896 -1.893998 48.271309 -3.931448 -7.026030 -26.876047 -3.797271 -3.948112 -13.293118 -12.308950 6.526176 51.013294 3.662146 7.283750 5.553468 0.079376 2.835805 
27.998056 52.062012 -100.378464 12.468180 7.581244 -52.772865 31.256678 -1.410792 -4.167288 -24.014690 9.728104 -0.800133 -16.126072 -1.446602 5.291649 38.187931 4.717664 11.804477 6.655530 -7.385053 2.814211 -70.988243 -44.080193 7.937464 -50.977768 7.915955 8.551570 8.524705 12.647240 -50.823620 -7.245022 1.299557 2.988899 65.904510 29.150230 14.757908 65.390717 -9.458877 14.879101 -8.534408 -12.637552 63.285015 -28.443615 4.647404 -1.316146 48.074184 -3.951029 -7.017700 -26.590284 -3.649688 -3.901321 -14.458548 -12.848641 6.955702 52.445354 3.527419 7.437827 7.196880 -0.733984 2.803018 
27.847761 52.064808 -99.896774 12.231988 7.766498 -52.994888 31.472174 -1.958999 -4.150217 -24.063829 9.556502 -0.720126 -11.810957 -5.109669 5.256982 31.448595 9.478944 12.571632 6.655530 -7.385053 2.814211 -70.578850 -44.259979 7.976969 -51.250336 7.974321 8.652889 8.524705 12.647240 -51.272839 -7.245022 1.299557 2.988899 66.364212 29.044645 14.367104 65.464737 -9.456787 14.915277 -8.534408 -12.637552 63.333843 -27.661007 4.071105 -1.150047 47.838516 -3.970525 -6.986647 -26.565754 -3.736549 -3.947569 -15.575235 -13.202518 7.340171 53.896740 3.370946 7.580572 8.652611 -0.732904 2.728317 
27.710537 52.079124 -99.461143 12.083804 8.171517 -52.819637 31.460258 -2.474919 -4.523400 -24.113213 9.515155 -0.755164 -12.469557 -4.373706 5.129308 32.050083 8.970929 12.274202 6.655530 -7.385053 2.814211 -70.067772 -44.526134 8.089416 -51.354771 7.994772 8.693207 8.524705 12.647240 -51.419323 -7.245022 1.299557 2.988899 66.759659 28.914541 14.215775 65.591568 -9.452738 14.977589 -8.534408 -12.637552 63.392441 -27.222145 3.251227 -1.398646 47.602097 -4.007093 -6.952964 -26.820398 -4.063636 -4.079908 -16.935928 -13.628423 7.515378 55.415447 3.214751 7.724604 9.613926 -1.116724 2.717288 
27.558998 52.072281 -98.927795 11.916165 8.252397 -53.203457 31.560432 -2.744047 -4.454900 -24.073198 9.333301 -0.689093 -12.032738 -4.593883 5.123406 31.302286 9.449678 12.353076 6.655530 -7.385053 2.814211 -69.697075 -44.623856 8.260814 -51.448315 8.011601 8.735500 8.524705 12.647240 -51.311905 -7.245022 1.299557 2.988899 67.015846 28.726929 14.172281 65.676102 -9.449561 15.016477 -8.534408 -12.637552 63.255714 -26.384325 2.723898 -1.347154 47.395515 -4.019447 -6.940602 -27.409946 -4.448582 -4.262697 -17.937119 -13.865919 8.153239 56.932968 3.038695 7.874423 9.717697 -2.441243 2.896839 
27.436708 52.055477 -98.495270 11.844681 8.557444 -52.982857 31.681852 -3.089097 -4.774750 -24.221775 9.388199 -0.745670 -11.880322 -4.531715 5.040602 30.967081 9.610773 12.242928 6.655530 -7.385053 2.814211 -69.320541 -44.888874 8.734526 -51.427971 8.009631 8.724586 8.524705 12.647240 -51.028698 -7.245022 1.299557 2.988899 67.319626 28.603966 13.960579 65.739502 -9.446880 15.042030 -8.534408 -12.637552 63.255714 -25.976259 2.293856 -0.850176 47.238297 -4.036585 -6.915048 -27.527578 -6.079880 -5.140110 -19.202015 -14.166306 8.296839 58.528275 2.872782 8.002774 9.089218 -3.858845 3.115951 
27.304152 52.034626 -98.048439 11.734130 8.828307 -52.951050 31.850582 -3.582861 -4.952786 -24.132656 9.370419 -0.720420 -11.876097 -4.357363 4.923615 30.550295 9.696755 12.034675 6.655530 -7.385053 2.814211 -68.628418 -45.747707 9.222059 -50.967075 7.911812 8.542397 8.524705 12.647240 -50.852921 -7.245022 1.299557 2.988899 67.782021 28.722773 13.860129 65.814957 -9.447393 15.079022 -8.534408 -12.637552 63.460796 -25.528606 1.766655 -0.566265 47.160061 -4.038936 -6.899686 -27.986774 -7.188097 -5.763564 -20.469479 -14.419376 8.392079 60.092522 2.706627 8.143636 7.453796 -4.924779 3.261924 
27.173460 52.008801 -97.584480 11.786978 8.943067 -52.985561 32.016544 -3.740527 -4.995407 -24.003593 9.177003 -0.686978 -13.439194 -2.887990 4.863101 32.257446 8.422677 11.773564 6.655530 -7.385053 2.814211 -67.937401 -46.546913 9.391231 -50.632534 7.838937 8.400806 8.524705 12.647240 -50.891987 -7.245022 1.299557 2.988899 68.291351 28.896238 13.761971 65.804359 -9.448083 15.078003 -8.534408 -12.637552 63.499859 -25.088316 1.415130 -0.507412 47.110046 -4.039082 -6.924564 -27.616837 -7.305351 -5.797464 -21.679108 -14.423554 8.404848 61.607208 2.530694 8.270945 5.661443 -5.882679 3.325221 
27.058014 51.982662 -97.121147 11.999481 9.026479 -52.610008 32.105640 -3.488637 -5.122045 -24.052427 8.879960 -0.745992 -16.057756 -0.686648 4.674709 35.989628 6.144489 11.150033 6.655530 -7.385053 2.814211 -67.445389 -47.016216 9.287051 -50.685139 7.853234 8.430555 8.524705 12.647240 -51.282604 -7.245022 1.299557 2.988899 68.759293 28.876640 13.584641 65.762192 -9.449549 15.054447 -8.534408 -12.637552 63.363140 -24.856638 1.034544 -0.781891 47.100529 -4.055829 -6.891963 -27.463612 -7.301933 -5.792650 -22.846647 -14.372753 8.028008 63.052959 2.354788 8.378865 3.765511 -6.757209 3.300926 
26.933548 51.972084 -96.663116 12.291495 9.096239 -52.278313 32.136391 -3.250409 -5.223203 -24.081636 8.651914 -0.795845 -12.749114 -3.073654 4.730580 30.776743 9.269945 11.687023 6.655530 -7.385053 2.814211 -66.946411 -47.574135 9.238142 -50.579735 7.825192 8.382171 8.524705 12.647240 -51.419323 -7.245022 1.299557 2.988899 69.162025 28.823015 13.563768 65.741112 -9.450262 15.041069 -8.534408 -12.637552 63.177589 -24.666573 0.741855 -1.078377 47.178886 -4.046141 -6.913973 -27.445696 -7.113477 -5.695460 -24.126682 -14.168189 7.729190 64.477921 2.188771 8.496402 1.946452 -7.551856 3.239064 
26.791964 51.934746 -96.194496 12.511173 9.186820 -52.254494 32.100464 -3.277849 -5.009865 -23.952915 8.353617 -0.720665 -16.263277 0.093365 4.443651 35.890228 5.868927 10.781666 6.655530 -7.385053 2.814211 -66.420815 -48.290886 9.504507 -50.319489 7.772441 8.279961 8.524705 12.647240 -51.399788 -7.245022 1.299557 2.988899 69.671143 28.809141 13.315299 65.676224 -9.448931 15.006730 -8.534408 -12.637552 62.874855 -24.329483 0.673299 -0.596876 47.149818 -4.046074 -6.901791 -27.295275 -7.346754 -5.818924 -25.462862 -13.943083 7.700183 65.746872 2.032326 8.575046 0.106125 -7.967616 3.062408 
26.683056 51.849480 -95.819847 12.900078 9.576013 -51.672997 31.950443 -3.249064 -5.462504 -24.180372 8.656747 -0.871080 -12.287321 -2.853423 4.636438 29.947887 9.462003 11.595635 6.655530 -7.385053 2.814211 -66.306290 -48.554752 9.353393 -50.339825 7.774808 8.290676 8.524705 12.647240 -51.634167 -7.245022 1.299557 2.988899 69.775208 28.643255 13.294750 65.602188 -9.452115 14.978591 -8.534408 -12.637552 62.562363 -24.494650 1.034238 1.044593 47.149818 -4.046069 -6.901795 -26.508785 -9.069926 -6.713794 -27.199942 -13.825758 7.352760 67.004524 1.876323 8.678476 -1.794467 -8.441456 2.876088 
26.535873 51.876549 -95.274986 12.882167 9.482110 -51.743862 32.272797 -3.202910 -5.425562 -24.239466 8.568727 -0.864750 -12.355693 -2.698500 4.593700 30.005205 9.298558 11.468012 6.655530 -7.385053 2.814211 -66.075706 -48.944988 9.347765 -50.308807 7.768138 8.270883 8.524705 12.647240 -51.634167 -7.245022 1.299557 2.988899 69.758385 28.399397 13.569312 65.688194 -9.452933 15.026260 -8.534408 -12.637552 62.640484 -23.587412 0.048431 -0.421470 46.972115 -4.065540 -6.894314 -27.940533 -7.837874 -6.107878 -28.080292 -13.660351 7.489799 67.881989 1.759247 8.736740 -3.603419 -8.719528 2.663564 
